<mxfile host="app.diagrams.net" modified="2023-10-23T05:38:31.955Z" agent="Mozilla/5.0 (Windows NT 10.0; Win64; x64) AppleWebKit/537.36 (KHTML, like Gecko) Chrome/118.0.0.0 Safari/537.36" etag="6wxvRRjsZjQ98ln1NLsj" version="22.0.6" type="github">
  <diagram name="第 1 页" id="YrrbU8DAUSLYjpWkU_ug">
    <mxGraphModel dx="1050" dy="574" grid="1" gridSize="10" guides="1" tooltips="1" connect="1" arrows="1" fold="1" page="1" pageScale="1" pageWidth="827" pageHeight="1169" math="0" shadow="0">
      <root>
        <mxCell id="0" />
        <mxCell id="1" parent="0" />
        <mxCell id="MUVfbUhpLU2em8SSjuA1-1" value="" style="rounded=0;whiteSpace=wrap;html=1;fillColor=#000000;" vertex="1" parent="1">
          <mxGeometry x="80" y="250" width="670" height="130" as="geometry" />
        </mxCell>
        <mxCell id="MUVfbUhpLU2em8SSjuA1-2" value="88:88" style="text;strokeColor=none;align=center;fillColor=none;html=1;verticalAlign=middle;whiteSpace=wrap;rounded=0;fontSize=64;fontColor=#FFFFFF;" vertex="1" parent="1">
          <mxGeometry x="180" y="290" width="60" height="30" as="geometry" />
        </mxCell>
        <mxCell id="MUVfbUhpLU2em8SSjuA1-3" value="运行时间" style="text;strokeColor=none;align=center;fillColor=none;html=1;verticalAlign=middle;whiteSpace=wrap;rounded=0;fontSize=34;fontColor=#FFFFFF;" vertex="1" parent="1">
          <mxGeometry x="115" y="344" width="190" height="30" as="geometry" />
        </mxCell>
        <mxCell id="MUVfbUhpLU2em8SSjuA1-4" value="88" style="text;strokeColor=none;align=center;fillColor=none;html=1;verticalAlign=middle;whiteSpace=wrap;rounded=0;fontSize=64;fontColor=#FFFFFF;" vertex="1" parent="1">
          <mxGeometry x="340" y="290" width="60" height="30" as="geometry" />
        </mxCell>
        <mxCell id="MUVfbUhpLU2em8SSjuA1-5" value="温度" style="text;strokeColor=none;align=center;fillColor=none;html=1;verticalAlign=middle;whiteSpace=wrap;rounded=0;fontSize=34;fontColor=#FFFFFF;" vertex="1" parent="1">
          <mxGeometry x="275" y="344" width="190" height="30" as="geometry" />
        </mxCell>
        <mxCell id="MUVfbUhpLU2em8SSjuA1-6" value="水泵" style="text;strokeColor=none;align=center;fillColor=none;html=1;verticalAlign=middle;whiteSpace=wrap;rounded=0;fontColor=#FFFFFF;" vertex="1" parent="1">
          <mxGeometry x="500" y="290" width="60" height="30" as="geometry" />
        </mxCell>
        <mxCell id="MUVfbUhpLU2em8SSjuA1-7" value="气泵" style="text;strokeColor=none;align=center;fillColor=none;html=1;verticalAlign=middle;whiteSpace=wrap;rounded=0;fontColor=#FFFFFF;" vertex="1" parent="1">
          <mxGeometry x="500" y="314" width="60" height="30" as="geometry" />
        </mxCell>
      </root>
    </mxGraphModel>
  </diagram>
</mxfile>
